<svg width="375" height="170" viewBox="0 0 375 170" fill="none" xmlns="http://www.w3.org/2000/svg">
<mask id="mask0_7_384" style="mask-type:alpha" maskUnits="userSpaceOnUse" x="244" y="0" width="131" height="121">
<path d="M244 0H375V81C375 103.091 357.091 121 335 121H244V0Z" fill="url(#paint0_linear_7_384)"/>
</mask>
<g mask="url(#mask0_7_384)">
<circle cx="350" cy="9" r="70" stroke="#BED8FF" stroke-opacity="0.2" stroke-width="20"/>
</g>
<mask id="mask1_7_384" style="mask-type:alpha" maskUnits="userSpaceOnUse" x="0" y="24" width="147" height="146">
<path d="M0 24H146.483V130C146.483 152.091 128.574 170 106.483 170H0V24Z" fill="url(#paint1_linear_7_384)"/>
</mask>
<g mask="url(#mask1_7_384)">
<path d="M0.756027 282.485C60.6067 282.485 106.676 229.441 106.676 167.18C106.676 104.919 60.6067 51.8743 0.756027 51.8743C-59.0946 51.8743 -105.164 104.919 -105.164 167.18C-105.164 229.441 -59.0946 282.485 0.756027 282.485Z" stroke="#BED8FF" stroke-opacity="0.2" stroke-width="30"/>
</g>
<defs>
<linearGradient id="paint0_linear_7_384" x1="244" y1="121" x2="385.095" y2="13.2153" gradientUnits="userSpaceOnUse">
<stop stop-color="#007AFE"/>
<stop offset="1" stop-color="#6E95FB"/>
</linearGradient>
<linearGradient id="paint1_linear_7_384" x1="-3.27414e-06" y1="170" x2="166.431" y2="52.178" gradientUnits="userSpaceOnUse">
<stop stop-color="#4484C9"/>
<stop offset="1" stop-color="#6E95FB"/>
</linearGradient>
</defs>
</svg>
