<svg width="37" height="33" viewBox="0 0 37 33" fill="none" xmlns="http://www.w3.org/2000/svg">
<path d="M29.6 26.4C30.5813 26.4 31.5224 26.7477 32.2163 27.3665C32.9102 27.9854 33.3 28.8248 33.3 29.7C33.3 30.5752 32.9102 31.4146 32.2163 32.0335C31.5224 32.6523 30.5813 33 29.6 33C28.6187 33 27.6776 32.6523 26.9837 32.0335C26.2898 31.4146 25.9 30.5752 25.9 29.7C25.9 27.8685 27.5465 26.4 29.6 26.4ZM0 0H6.0495L7.7885 3.3H35.15C35.6407 3.3 36.1112 3.47384 36.4581 3.78327C36.8051 4.09271 37 4.51239 37 4.95C37 5.2305 36.9075 5.511 36.778 5.775L30.155 16.4505C29.526 17.457 28.305 18.15 26.9175 18.15H13.135L11.47 20.8395L11.4145 21.0375C11.4145 21.1469 11.4632 21.2518 11.55 21.3292C11.6367 21.4065 11.7543 21.45 11.877 21.45H33.3V24.75H11.1C10.1187 24.75 9.17759 24.4023 8.4837 23.7835C7.78982 23.1646 7.4 22.3252 7.4 21.45C7.4 20.8725 7.5665 20.328 7.844 19.866L10.36 15.8235L3.7 3.3H0V0ZM11.1 26.4C12.0813 26.4 13.0224 26.7477 13.7163 27.3665C14.4102 27.9854 14.8 28.8248 14.8 29.7C14.8 30.5752 14.4102 31.4146 13.7163 32.0335C13.0224 32.6523 12.0813 33 11.1 33C10.1187 33 9.17759 32.6523 8.4837 32.0335C7.78982 31.4146 7.4 30.5752 7.4 29.7C7.4 27.8685 9.0465 26.4 11.1 26.4ZM27.75 14.85L32.893 6.6H9.509L13.875 14.85H27.75Z" fill="#05885B"/>
</svg>
