<svg width="29" height="28" viewBox="0 0 29 28" fill="none" xmlns="http://www.w3.org/2000/svg">
<path d="M12.1496 6H17.2269C17.2269 5.33696 16.9595 4.70107 16.4834 4.23223C16.0073 3.76339 15.3616 3.5 14.6883 3.5C14.015 3.5 13.3692 3.76339 12.8931 4.23223C12.4171 4.70107 12.1496 5.33696 12.1496 6ZM10.6264 6C10.6264 4.93913 11.0543 3.92172 11.8161 3.17157C12.5778 2.42143 13.611 2 14.6883 2C15.7655 2 16.7987 2.42143 17.5605 3.17157C18.3222 3.92172 18.7502 4.93913 18.7502 6H25.0969C25.2988 6 25.4926 6.07902 25.6354 6.21967C25.7782 6.36032 25.8585 6.55109 25.8585 6.75C25.8585 6.94891 25.7782 7.13968 25.6354 7.28033C25.4926 7.42098 25.2988 7.5 25.0969 7.5H23.7666L22.5308 22.103C22.4408 23.1653 21.9488 24.1556 21.1523 24.8774C20.3557 25.5992 19.3127 25.9999 18.2302 26H11.1463C10.0638 25.9999 9.02085 25.5992 8.22428 24.8774C7.42771 24.1556 6.93568 23.1653 6.84577 22.103L5.60994 7.5H4.27967C4.07768 7.5 3.88396 7.42098 3.74114 7.28033C3.59831 7.13968 3.51807 6.94891 3.51807 6.75C3.51807 6.55109 3.59831 6.36032 3.74114 6.21967C3.88396 6.07902 4.07768 6 4.27967 6H10.6264ZM8.3639 21.978C8.42198 22.6654 8.74026 23.3062 9.25563 23.7734C9.77101 24.2405 10.4458 24.4999 11.1463 24.5H18.2302C18.9307 24.4999 19.6055 24.2405 20.1209 23.7734C20.6363 23.3062 20.9546 22.6654 21.0126 21.978L22.2393 7.5H7.13823L8.3639 21.978ZM12.4035 11C12.6054 11 12.7992 11.079 12.942 11.2197C13.0848 11.3603 13.1651 11.5511 13.1651 11.75V20.25C13.1651 20.4489 13.0848 20.6397 12.942 20.7803C12.7992 20.921 12.6054 21 12.4035 21C12.2015 21 12.0077 20.921 11.8649 20.7803C11.7221 20.6397 11.6418 20.4489 11.6418 20.25V11.75C11.6418 11.5511 11.7221 11.3603 11.8649 11.2197C12.0077 11.079 12.2015 11 12.4035 11ZM17.7347 11.75C17.7347 11.5511 17.6544 11.3603 17.5116 11.2197C17.3688 11.079 17.1751 11 16.9731 11C16.7711 11 16.5774 11.079 16.4345 11.2197C16.2917 11.3603 16.2115 11.5511 16.2115 11.75V20.25C16.2115 20.4489 16.2917 20.6397 16.4345 20.7803C16.5774 20.921 16.7711 21 16.9731 21C17.1751 21 17.3688 20.921 17.5116 20.7803C17.6544 20.6397 17.7347 20.4489 17.7347 20.25V11.75Z" fill="#E64646"/>
</svg>
