<svg width="22" height="22" viewBox="0 0 22 22" fill="none" xmlns="http://www.w3.org/2000/svg">
<path d="M7.60938 10.125H3.01563C1.62853 10.125 0.5 8.99647 0.5 7.60938V3.01563C0.5 1.62853 1.62853 0.5 3.01563 0.5H7.60938C8.99647 0.5 10.125 1.62853 10.125 3.01563V7.60938C10.125 8.99647 8.99647 10.125 7.60938 10.125ZM3.01563 2.25C2.59344 2.25 2.25 2.59344 2.25 3.01563V7.60938C2.25 8.03157 2.59344 8.375 3.01563 8.375H7.60938C8.03157 8.375 8.375 8.03157 8.375 7.60938V3.01563C8.375 2.59344 8.03157 2.25 7.60938 2.25H3.01563Z" fill="#3DAB25"/>
<path d="M7.60938 21.5H3.01563C1.62853 21.5 0.5 20.3715 0.5 18.9844V14.3906C0.5 13.0035 1.62853 11.875 3.01563 11.875H7.60938C8.99647 11.875 10.125 13.0035 10.125 14.3906V18.9844C10.125 20.3715 8.99647 21.5 7.60938 21.5ZM3.01563 13.625C2.59344 13.625 2.25 13.9684 2.25 14.3906V18.9844C2.25 19.4066 2.59344 19.75 3.01563 19.75H7.60938C8.03157 19.75 8.375 19.4066 8.375 18.9844V14.3906C8.375 13.9684 8.03157 13.625 7.60938 13.625H3.01563Z" fill="#3DAB25"/>
<path d="M18.9844 10.125H14.3906C13.0035 10.125 11.875 8.99647 11.875 7.60938V3.01563C11.875 1.62853 13.0035 0.5 14.3906 0.5H18.9844C20.3715 0.5 21.5 1.62853 21.5 3.01563V7.60938C21.5 8.99647 20.3715 10.125 18.9844 10.125ZM14.3906 2.25C13.9684 2.25 13.625 2.59344 13.625 3.01563V7.60938C13.625 8.03157 13.9684 8.375 14.3906 8.375H18.9844C19.4066 8.375 19.75 8.03157 19.75 7.60938V3.01563C19.75 2.59344 19.4066 2.25 18.9844 2.25H14.3906Z" fill="#3DAB25"/>
<path d="M20.0781 16.25H18V13.2969C18 12.5129 17.3622 11.875 16.5781 11.875H13.2969C12.5128 11.875 11.875 12.5129 11.875 13.2969V16.5781C11.875 17.3621 12.5128 18 13.2969 18H16.25V20.0781C16.25 20.8621 16.8878 21.5 17.6719 21.5H20.0781C20.8622 21.5 21.5 20.8621 21.5 20.0781V17.6719C21.5 16.8879 20.8622 16.25 20.0781 16.25ZM13.625 13.625H16.25V16.25H13.625V13.625ZM19.75 19.75H18V18H19.75V19.75Z" fill="#FEBC11"/>
<path d="M5.75 6.625H4.875C4.39173 6.625 4 6.23322 4 5.75V4.875C4 4.39178 4.39173 4 4.875 4H5.75C6.23328 4 6.625 4.39178 6.625 4.875V5.75C6.625 6.23322 6.23328 6.625 5.75 6.625Z" fill="#3DAB25"/>
<path d="M17.125 6.625H16.25C15.7667 6.625 15.375 6.23322 15.375 5.75V4.875C15.375 4.39178 15.7667 4 16.25 4H17.125C17.6083 4 18 4.39178 18 4.875V5.75C18 6.23322 17.6083 6.625 17.125 6.625Z" fill="#3DAB25"/>
<path d="M5.75 18H4.875C4.39173 18 4 17.6082 4 17.125V16.25C4 15.7668 4.39173 15.375 4.875 15.375H5.75C6.23328 15.375 6.625 15.7668 6.625 16.25V17.125C6.625 17.6082 6.23328 18 5.75 18Z" fill="#3DAB25"/>
</svg>
